<svg width="16" height="11" viewBox="0 0 16 11" fill="none" xmlns="http://www.w3.org/2000/svg">
<path d="M6.34375 5.25806C7.19141 4.82056 7.65625 4.19165 7.65625 3.23462C7.65625 1.29321 6.20703 0.828369 4.56641 0.828369H0V10.5081H4.67578C6.45312 10.5081 8.09375 9.6604 8.09375 7.69165C8.09375 6.48853 7.51953 5.58618 6.34375 5.25806ZM2.10547 2.46899H4.12891C4.89453 2.46899 5.57812 2.68774 5.57812 3.59009C5.57812 4.4104 5.03125 4.73853 4.26562 4.73853H2.10547V2.46899ZM4.40234 8.86743H2.10547V6.18774H4.42969C5.38672 6.18774 5.96094 6.5979 5.96094 7.58228C5.96094 8.56665 5.25 8.86743 4.40234 8.86743ZM14.1914 2.27759V1.32056H10.2812V2.27759H14.1914ZM15.75 7.11743C15.75 5.03931 14.5195 3.28931 12.332 3.28931C10.1719 3.28931 8.72266 4.90259 8.72266 7.00806C8.72266 9.19556 10.1172 10.6995 12.332 10.6995C14 10.6995 15.0938 9.93384 15.6133 8.3479H13.918C13.7266 8.94946 12.9609 9.25024 12.3867 9.25024C11.2656 9.25024 10.6641 8.59399 10.6641 7.4729H15.7227C15.7227 7.36353 15.75 7.22681 15.75 7.11743ZM10.6641 6.24243C10.7188 5.34009 11.3477 4.76587 12.25 4.76587C13.2344 4.76587 13.7266 5.31274 13.8086 6.24243H10.6641Z" fill="#C4C4C4"/>
</svg>
