<svg width="14" height="15" viewBox="0 0 14 15" fill="none" xmlns="http://www.w3.org/2000/svg">
<path d="M7 0.968994C3.25391 0.968994 0.21875 4.03149 0.21875 7.75024C0.21875 11.4963 3.25391 14.5315 7 14.5315C10.7188 14.5315 13.7812 11.4963 13.7812 7.75024C13.7812 4.03149 10.7188 0.968994 7 0.968994ZM11.457 4.11353C12.2773 5.0979 12.7695 6.35571 12.7695 7.7229C12.5781 7.66821 10.6641 7.2854 8.75 7.53149C8.58594 7.14868 8.44922 6.82056 8.23047 6.38306C10.3906 5.50806 11.3477 4.27759 11.457 4.11353ZM10.8281 3.42993C10.7188 3.59399 9.84375 4.76978 7.79297 5.5354C6.83594 3.7854 5.79688 2.36353 5.63281 2.14478C7.46484 1.70728 9.40625 2.17212 10.8281 3.42993ZM4.51172 2.52759C4.67578 2.74634 5.71484 4.16821 6.67188 5.89087C3.96484 6.60181 1.58594 6.60181 1.3125 6.57446C1.69531 4.79712 2.89844 3.29321 4.51172 2.52759ZM1.20312 7.77759C1.20312 7.7229 1.20312 7.66821 1.20312 7.58618C1.44922 7.61353 4.26562 7.64087 7.13672 6.76587C7.32812 7.09399 7.46484 7.42212 7.62891 7.75024C5.52344 8.35181 3.60938 10.0471 2.67969 11.6331C1.75 10.6213 1.20312 9.25415 1.20312 7.77759ZM3.41797 12.344C4.04688 11.1135 5.6875 9.50024 8.01172 8.70728C8.83203 10.8127 9.16016 12.5901 9.24219 13.1096C7.38281 13.9026 5.14062 13.6838 3.41797 12.344ZM10.2266 12.5627C10.1719 12.2346 9.84375 10.5393 9.10547 8.43384C10.9102 8.1604 12.4961 8.62524 12.7148 8.67993C12.4414 10.2932 11.5117 11.6877 10.2266 12.5627Z" fill="#C4C4C4"/>
</svg>
